<svg width="54" height="46" viewBox="0 0 54 46" fill="none" xmlns="http://www.w3.org/2000/svg">
<path fill-rule="evenodd" clip-rule="evenodd" d="M37.0375 0.666626C38.523 0.666676 39.9791 1.08032 41.2427 1.86121C42.5064 2.6421 43.5277 3.75941 44.1922 5.08796L47.8882 12.4773C48.5388 12.2106 49.1788 11.9226 49.8082 11.6133C50.4411 11.2972 51.1738 11.2454 51.8449 11.4695C52.5161 11.6935 53.0707 12.175 53.3868 12.808C53.703 13.4409 53.7547 14.1736 53.5307 14.8447C53.3066 15.5158 52.8251 16.0705 52.1922 16.3866C51.5512 16.6719 50.9067 16.9493 50.2588 17.2186L52.8215 22.3466C53.3777 23.4585 53.6672 24.6847 53.6668 25.928V32.6666C53.6668 33.7922 53.4293 34.905 52.9698 35.9325C52.5103 36.96 51.8391 37.8789 51.0002 38.6293V42C51.0002 43.0608 50.5787 44.0782 49.8286 44.8284C49.0784 45.5785 48.061 46 47.0002 46C45.9393 46 44.9219 45.5785 44.1717 44.8284C43.4216 44.0782 43.0002 43.0608 43.0002 42V40.6666H11.0002V42C11.0002 43.0608 10.5787 44.0782 9.82859 44.8284C9.07845 45.5785 8.06103 46 7.00016 46C5.9393 46 4.92188 45.5785 4.17174 44.8284C3.42159 44.0782 3.00016 43.0608 3.00016 42V38.6293C1.36283 37.1626 0.333496 35.0346 0.333496 32.6666V25.9253C0.333994 24.6839 0.623406 23.4596 1.17883 22.3493L3.72016 17.2613C3.07661 16.9911 2.44105 16.7004 1.8135 16.3893C1.18371 16.069 0.704988 15.5141 0.480516 14.8442C0.256044 14.1743 0.303803 13.443 0.613496 12.808C0.769919 12.4944 0.986596 12.2148 1.25114 11.9851C1.51568 11.7553 1.82291 11.58 2.15526 11.469C2.48761 11.3581 2.83856 11.3137 3.18807 11.3385C3.53757 11.3632 3.87877 11.4566 4.19216 11.6133C4.82327 11.9244 5.46327 12.2124 6.11216 12.4773L9.80816 5.09063C10.4723 3.76157 11.4934 2.64373 12.7571 1.86234C14.0208 1.08096 15.4771 0.666924 16.9628 0.666626H37.0375ZM15.0002 24.6666C13.9393 24.6666 12.9219 25.0881 12.1717 25.8382C11.4216 26.5883 11.0002 27.6058 11.0002 28.6666C11.0002 29.7275 11.4216 30.7449 12.1717 31.4951C12.9219 32.2452 13.9393 32.6666 15.0002 32.6666C16.061 32.6666 17.0784 32.2452 17.8286 31.4951C18.5787 30.7449 19.0002 29.7275 19.0002 28.6666C19.0002 27.6058 18.5787 26.5883 17.8286 25.8382C17.0784 25.0881 16.061 24.6666 15.0002 24.6666ZM39.0002 24.6666C37.9393 24.6666 36.9219 25.0881 36.1717 25.8382C35.4216 26.5883 35.0002 27.6058 35.0002 28.6666C35.0002 29.7275 35.4216 30.7449 36.1717 31.4951C36.9219 32.2452 37.9393 32.6666 39.0002 32.6666C40.061 32.6666 41.0784 32.2452 41.8286 31.4951C42.5787 30.7449 43.0002 29.7275 43.0002 28.6666C43.0002 27.6058 42.5787 26.5883 41.8286 25.8382C41.0784 25.0881 40.061 24.6666 39.0002 24.6666ZM37.0375 5.99996H16.9628C16.5239 5.99989 16.0918 6.10817 15.7047 6.31517C15.3177 6.52218 14.9878 6.82152 14.7442 7.18663L14.5788 7.47463L11.1922 14.2426C15.3202 15.48 20.8828 16.6666 27.0002 16.6666C32.7122 16.6666 37.9362 15.632 41.9602 14.488L42.8055 14.2426L39.4215 7.47463C39.2252 7.08213 38.9352 6.74414 38.577 6.49062C38.2188 6.2371 37.8036 6.07589 37.3682 6.02129L37.0402 5.99996H37.0375Z" fill="#3563E9"/>
</svg>
