<svg width="38" height="48" viewBox="0 0 38 48" fill="none" xmlns="http://www.w3.org/2000/svg">
<path d="M15.0206 44.9684C16.2999 46.0488 17.6341 47.0363 19 48C20.3688 47.0491 21.6966 46.0376 22.9794 44.9684C25.118 43.1711 27.1306 41.2223 29.0024 39.1364C33.3176 34.307 38 27.306 38 19.4472C38 16.8934 37.5086 14.3645 36.5537 12.0051C35.5989 9.64563 34.1993 7.50179 32.435 5.69595C30.6707 3.89011 28.5762 2.45764 26.271 1.48033C23.9658 0.503017 21.4951 0 19 0C16.5049 0 14.0342 0.503017 11.729 1.48033C9.42383 2.45764 7.32928 3.89011 5.56497 5.69595C3.80066 7.50179 2.40113 9.64563 1.44629 12.0051C0.491449 14.3645 -3.71801e-08 16.8934 0 19.4472C0 27.306 4.68245 34.3049 8.99756 39.1364C10.8693 41.223 12.8819 43.1704 15.0206 44.9684ZM19 26.4698C17.1803 26.4698 15.4352 25.7299 14.1485 24.4129C12.8618 23.0959 12.1389 21.3097 12.1389 19.4472C12.1389 17.5847 12.8618 15.7985 14.1485 14.4815C15.4352 13.1645 17.1803 12.4246 19 12.4246C20.8197 12.4246 22.5648 13.1645 23.8515 14.4815C25.1382 15.7985 25.8611 17.5847 25.8611 19.4472C25.8611 21.3097 25.1382 23.0959 23.8515 24.4129C22.5648 25.7299 20.8197 26.4698 19 26.4698Z" fill="#3563E9"/>
</svg>
