<svg width="57" height="47" viewBox="0 0 57 47" fill="none" xmlns="http://www.w3.org/2000/svg">
<path fill-rule="evenodd" clip-rule="evenodd" d="M51.7668 13.344C51.6157 13.3351 51.4548 13.3316 51.2842 13.3333H44.5508C39.0362 13.3333 34.3188 17.6747 34.3188 23.3333C34.3188 28.992 39.0388 33.3333 44.5508 33.3333H51.2842C51.4548 33.3351 51.6166 33.3316 51.7695 33.3227C52.9029 33.2543 53.9728 32.7763 54.7799 31.9776C55.5869 31.1788 56.0761 30.114 56.1562 28.9813C56.1668 28.8213 56.1668 28.648 56.1668 28.488V18.1787C56.1668 18.0187 56.1668 17.8453 56.1562 17.6853C56.0761 16.5527 55.5869 15.4878 54.7799 14.6891C53.9728 13.8904 52.9003 13.4123 51.7668 13.344ZM43.9615 26C45.3802 26 46.5295 24.8053 46.5295 23.3333C46.5295 21.8613 45.3802 20.6667 43.9615 20.6667C42.5402 20.6667 41.3908 21.8613 41.3908 23.3333C41.3908 24.8053 42.5402 26 43.9615 26Z" fill="#3563E9"/>
<path fill-rule="evenodd" clip-rule="evenodd" d="M51.2815 37.3333C51.3737 37.3296 51.4655 37.3477 51.5493 37.3861C51.6332 37.4246 51.7069 37.4822 51.7643 37.5545C51.8217 37.6267 51.8613 37.7114 51.8798 37.8018C51.8983 37.8922 51.8952 37.9857 51.8708 38.0747C51.3375 39.9733 50.4868 41.5947 49.1242 42.9547C47.1268 44.9547 44.5962 45.8373 41.4708 46.2587C38.4308 46.6667 34.5508 46.6667 29.6495 46.6667H24.0175C19.1162 46.6667 15.2335 46.6667 12.1962 46.2587C9.07083 45.8373 6.54016 44.952 4.54283 42.9573C2.54816 40.96 1.66283 38.4293 1.2415 35.304C0.833496 32.264 0.833496 28.384 0.833496 23.4827V23.184C0.833496 18.2827 0.833496 14.4 1.2415 11.36C1.66283 8.23467 2.54816 5.704 4.54283 3.70667C6.54016 1.712 9.07083 0.826667 12.1962 0.405333C15.2362 -1.19209e-07 19.1162 0 24.0175 0H29.6495C34.5508 0 38.4335 3.17891e-07 41.4708 0.408C44.5962 0.829334 47.1268 1.71467 49.1242 3.70933C50.4868 5.07467 51.3375 6.69333 51.8708 8.592C51.8952 8.68098 51.8983 8.77446 51.8798 8.86485C51.8613 8.95524 51.8217 9.03999 51.7643 9.11222C51.7069 9.18444 51.6332 9.2421 51.5493 9.28052C51.4655 9.31894 51.3737 9.33704 51.2815 9.33333H44.5508C36.9855 9.33333 30.3188 15.3067 30.3188 23.3333C30.3188 31.36 36.9855 37.3333 44.5508 37.3333H51.2815ZM10.8335 10.6667C10.3031 10.6667 9.79436 10.8774 9.41928 11.2525C9.04421 11.6275 8.8335 12.1362 8.8335 12.6667C8.8335 13.1971 9.04421 13.7058 9.41928 14.0809C9.79436 14.456 10.3031 14.6667 10.8335 14.6667H21.5002C22.0306 14.6667 22.5393 14.456 22.9144 14.0809C23.2894 13.7058 23.5002 13.1971 23.5002 12.6667C23.5002 12.1362 23.2894 11.6275 22.9144 11.2525C22.5393 10.8774 22.0306 10.6667 21.5002 10.6667H10.8335Z" fill="#3563E9"/>
</svg>
