<svg width="72" height="68" viewBox="0 0 72 68" fill="none" xmlns="http://www.w3.org/2000/svg">
<rect width="72" height="68" rx="12" fill="#3563E9"/>
<path d="M28.9165 18.1667C28.9165 17.8352 28.7848 17.5173 28.5504 17.2829C28.316 17.0484 27.998 16.9167 27.6665 16.9167C27.335 16.9167 27.017 17.0484 26.7826 17.2829C26.5482 17.5173 26.4165 17.8352 26.4165 18.1667V20.8001C24.0165 20.9917 22.4432 21.4617 21.2865 22.6201C20.1282 23.7767 19.6582 25.3517 19.4648 27.7501H52.5348C52.3415 25.3501 51.8715 23.7767 50.7132 22.6201C49.5565 21.4617 47.9815 20.9917 45.5832 20.7984V18.1667C45.5832 17.8352 45.4515 17.5173 45.2171 17.2829C44.9826 17.0484 44.6647 16.9167 44.3332 16.9167C44.0017 16.9167 43.6837 17.0484 43.4493 17.2829C43.2149 17.5173 43.0832 17.8352 43.0832 18.1667V20.6884C41.9748 20.6667 40.7315 20.6667 39.3332 20.6667H32.6665C31.2682 20.6667 30.0248 20.6667 28.9165 20.6884V18.1667Z" fill="white"/>
<path fill-rule="evenodd" clip-rule="evenodd" d="M19.3335 34C19.3335 32.6017 19.3335 31.3583 19.3552 30.25H52.6452C52.6668 31.3583 52.6668 32.6017 52.6668 34V37.3333C52.6668 43.6183 52.6668 46.7617 50.7135 48.7133C48.7602 50.665 45.6185 50.6667 39.3335 50.6667H32.6668C26.3818 50.6667 23.2385 50.6667 21.2868 48.7133C19.3352 46.76 19.3335 43.6183 19.3335 37.3333V34ZM44.3335 37.3333C44.7755 37.3333 45.1994 37.1577 45.512 36.8452C45.8246 36.5326 46.0002 36.1087 46.0002 35.6667C46.0002 35.2246 45.8246 34.8007 45.512 34.4882C45.1994 34.1756 44.7755 34 44.3335 34C43.8915 34 43.4675 34.1756 43.155 34.4882C42.8424 34.8007 42.6668 35.2246 42.6668 35.6667C42.6668 36.1087 42.8424 36.5326 43.155 36.8452C43.4675 37.1577 43.8915 37.3333 44.3335 37.3333ZM44.3335 44C44.7755 44 45.1994 43.8244 45.512 43.5118C45.8246 43.1993 46.0002 42.7754 46.0002 42.3333C46.0002 41.8913 45.8246 41.4674 45.512 41.1548C45.1994 40.8423 44.7755 40.6667 44.3335 40.6667C43.8915 40.6667 43.4675 40.8423 43.155 41.1548C42.8424 41.4674 42.6668 41.8913 42.6668 42.3333C42.6668 42.7754 42.8424 43.1993 43.155 43.5118C43.4675 43.8244 43.8915 44 44.3335 44ZM37.6668 35.6667C37.6668 36.1087 37.4912 36.5326 37.1787 36.8452C36.8661 37.1577 36.4422 37.3333 36.0002 37.3333C35.5581 37.3333 35.1342 37.1577 34.8217 36.8452C34.5091 36.5326 34.3335 36.1087 34.3335 35.6667C34.3335 35.2246 34.5091 34.8007 34.8217 34.4882C35.1342 34.1756 35.5581 34 36.0002 34C36.4422 34 36.8661 34.1756 37.1787 34.4882C37.4912 34.8007 37.6668 35.2246 37.6668 35.6667ZM37.6668 42.3333C37.6668 42.7754 37.4912 43.1993 37.1787 43.5118C36.8661 43.8244 36.4422 44 36.0002 44C35.5581 44 35.1342 43.8244 34.8217 43.5118C34.5091 43.1993 34.3335 42.7754 34.3335 42.3333C34.3335 41.8913 34.5091 41.4674 34.8217 41.1548C35.1342 40.8423 35.5581 40.6667 36.0002 40.6667C36.4422 40.6667 36.8661 40.8423 37.1787 41.1548C37.4912 41.4674 37.6668 41.8913 37.6668 42.3333ZM27.6668 37.3333C28.1089 37.3333 28.5328 37.1577 28.8453 36.8452C29.1579 36.5326 29.3335 36.1087 29.3335 35.6667C29.3335 35.2246 29.1579 34.8007 28.8453 34.4882C28.5328 34.1756 28.1089 34 27.6668 34C27.2248 34 26.8009 34.1756 26.4883 34.4882C26.1758 34.8007 26.0002 35.2246 26.0002 35.6667C26.0002 36.1087 26.1758 36.5326 26.4883 36.8452C26.8009 37.1577 27.2248 37.3333 27.6668 37.3333ZM27.6668 44C28.1089 44 28.5328 43.8244 28.8453 43.5118C29.1579 43.1993 29.3335 42.7754 29.3335 42.3333C29.3335 41.8913 29.1579 41.4674 28.8453 41.1548C28.5328 40.8423 28.1089 40.6667 27.6668 40.6667C27.2248 40.6667 26.8009 40.8423 26.4883 41.1548C26.1758 41.4674 26.0002 41.8913 26.0002 42.3333C26.0002 42.7754 26.1758 43.1993 26.4883 43.5118C26.8009 43.8244 27.2248 44 27.6668 44Z" fill="white"/>
</svg>
