<svg width="72" height="68" viewBox="0 0 72 68" fill="none" xmlns="http://www.w3.org/2000/svg">
<rect width="72" height="68" rx="12" fill="#3563E9"/>
<path fill-rule="evenodd" clip-rule="evenodd" d="M42.2735 20.6667C43.2019 20.6668 44.112 20.9253 44.9018 21.4134C45.6916 21.9014 46.3299 22.5997 46.7452 23.4301L49.0552 28.0484C49.4618 27.8817 49.8618 27.7017 50.2552 27.5084C50.6508 27.3108 51.1087 27.2785 51.5281 27.4185C51.9476 27.5585 52.2942 27.8595 52.4918 28.2551C52.6894 28.6507 52.7218 29.1086 52.5817 29.5281C52.4417 29.9475 52.1408 30.2942 51.7452 30.4917C51.3445 30.67 50.9417 30.8434 50.5368 31.0117L52.1385 34.2167C52.4861 34.9117 52.667 35.6781 52.6668 36.4551V40.6667C52.6668 41.3702 52.5184 42.0658 52.2312 42.7079C51.944 43.3501 51.5245 43.9244 51.0002 44.3934V46.5001C51.0002 47.1631 50.7368 47.799 50.2679 48.2678C49.7991 48.7367 49.1632 49.0001 48.5002 49.0001C47.8371 49.0001 47.2012 48.7367 46.7324 48.2678C46.2636 47.799 46.0002 47.1631 46.0002 46.5001V45.6667H26.0002V46.5001C26.0002 47.1631 25.7368 47.799 25.2679 48.2678C24.7991 48.7367 24.1632 49.0001 23.5002 49.0001C22.8371 49.0001 22.2012 48.7367 21.7324 48.2678C21.2636 47.799 21.0002 47.1631 21.0002 46.5001V44.3934C19.9768 43.4767 19.3335 42.1467 19.3335 40.6667V36.4534C19.3338 35.6775 19.5147 34.9123 19.8618 34.2184L21.4502 31.0384C21.0479 30.8695 20.6507 30.6879 20.2585 30.4934C19.8649 30.2933 19.5657 29.9465 19.4254 29.5277C19.2851 29.109 19.3149 28.652 19.5085 28.2551C19.6063 28.0591 19.7417 27.8844 19.907 27.7408C20.0724 27.5972 20.2644 27.4876 20.4721 27.4182C20.6798 27.3489 20.8992 27.3212 21.1176 27.3366C21.336 27.3521 21.5493 27.4105 21.7452 27.5084C22.1396 27.7029 22.5396 27.8829 22.9452 28.0484L25.2552 23.4317C25.6702 22.6011 26.3084 21.9024 27.0982 21.4141C27.888 20.9257 28.7982 20.6669 29.7268 20.6667H42.2735ZM28.5002 35.6667C27.8371 35.6667 27.2012 35.9301 26.7324 36.399C26.2636 36.8678 26.0002 37.5037 26.0002 38.1667C26.0002 38.8298 26.2636 39.4657 26.7324 39.9345C27.2012 40.4034 27.8371 40.6667 28.5002 40.6667C29.1632 40.6667 29.7991 40.4034 30.2679 39.9345C30.7368 39.4657 31.0002 38.8298 31.0002 38.1667C31.0002 37.5037 30.7368 36.8678 30.2679 36.399C29.7991 35.9301 29.1632 35.6667 28.5002 35.6667ZM43.5002 35.6667C42.8371 35.6667 42.2012 35.9301 41.7324 36.399C41.2636 36.8678 41.0002 37.5037 41.0002 38.1667C41.0002 38.8298 41.2636 39.4657 41.7324 39.9345C42.2012 40.4034 42.8371 40.6667 43.5002 40.6667C44.1632 40.6667 44.7991 40.4034 45.2679 39.9345C45.7368 39.4657 46.0002 38.8298 46.0002 38.1667C46.0002 37.5037 45.7368 36.8678 45.2679 36.399C44.7991 35.9301 44.1632 35.6667 43.5002 35.6667ZM42.2735 24.0001H29.7268C29.4525 24 29.1824 24.0677 28.9405 24.1971C28.6986 24.3265 28.4924 24.5136 28.3402 24.7417L28.2368 24.9217L26.1202 29.1517C28.7002 29.9251 32.1768 30.6667 36.0002 30.6667C39.5702 30.6667 42.8352 30.0201 45.3502 29.3051L45.8785 29.1517L43.7635 24.9217C43.6408 24.6764 43.4595 24.4652 43.2357 24.3067C43.0118 24.1483 42.7523 24.0475 42.4802 24.0134L42.2752 24.0001H42.2735Z" fill="white"/>
</svg>
