<svg width="72" height="68" viewBox="0 0 72 68" fill="none" xmlns="http://www.w3.org/2000/svg">
<rect width="72" height="68" rx="12" fill="#3563E9"/>
<path d="M42.2499 34C40.6437 34 39.0905 33.2828 37.8749 31.9813C36.6929 30.7117 35.971 29.0188 35.8437 27.2156C35.7077 25.2922 36.2944 23.5234 37.4952 22.2344C38.696 20.9453 40.3749 20.25 42.2499 20.25C44.1116 20.25 45.7952 20.9578 46.9921 22.2437C48.2007 23.5422 48.789 25.3078 48.653 27.2148C48.5226 29.0203 47.8015 30.7125 46.6218 31.9805C45.4093 33.2828 43.8569 34 42.2499 34ZM52.5491 47.75H31.9515C31.6203 47.7518 31.2932 47.6775 30.9952 47.533C30.6972 47.3885 30.4364 47.1776 30.2327 46.9164C30.0167 46.6333 29.8675 46.305 29.7964 45.9561C29.7252 45.6072 29.7339 45.2467 29.8218 44.9016C30.4796 42.2602 32.1093 40.0695 34.5343 38.5672C36.6866 37.2344 39.4265 36.5 42.2499 36.5C45.1288 36.5 47.7968 37.2031 49.9616 38.5352C52.3921 40.0297 54.0241 42.2328 54.6788 44.9062C54.7656 45.2516 54.7734 45.6121 54.7014 45.9608C54.6294 46.3096 54.4796 46.6376 54.2632 46.9203C54.0598 47.1803 53.7995 47.3902 53.5024 47.534C53.2053 47.6778 52.8792 47.7517 52.5491 47.75ZM27.4843 34.3125C24.7351 34.3125 22.3179 31.7563 22.0937 28.6148C21.9827 27.0055 22.4843 25.5172 23.4999 24.4258C24.5046 23.3453 25.9218 22.75 27.4843 22.75C29.0468 22.75 30.453 23.3484 31.4632 24.4352C32.4866 25.5352 32.9866 27.0203 32.8694 28.6164C32.6452 31.757 30.2288 34.3125 27.4843 34.3125ZM32.614 36.7695C31.2398 36.0977 29.4562 35.7617 27.4851 35.7617C25.1835 35.7617 22.9483 36.3617 21.1905 37.4508C19.1976 38.6875 17.8569 40.4883 17.3155 42.6625C17.2363 42.9752 17.2288 43.3018 17.2936 43.6179C17.3584 43.9339 17.4938 44.2312 17.6898 44.4875C17.8757 44.7261 18.1138 44.919 18.3859 45.0512C18.658 45.1834 18.9568 45.2514 19.2593 45.25H27.9312C28.0775 45.25 28.2192 45.1986 28.3316 45.1048C28.444 45.011 28.5198 44.8807 28.546 44.7367C28.5546 44.6875 28.5655 44.6383 28.578 44.5898C29.2405 41.9289 30.7929 39.6805 33.0866 38.0414C33.171 37.9806 33.2388 37.8997 33.284 37.806C33.3292 37.7124 33.3504 37.6089 33.3455 37.505C33.3406 37.4011 33.3098 37.3001 33.2561 37.2111C33.2023 37.1221 33.1271 37.0479 33.0374 36.9953C32.9148 36.9234 32.7741 36.8477 32.614 36.7695Z" fill="white"/>
</svg>
