<svg width="72" height="68" viewBox="0 0 72 68" fill="none" xmlns="http://www.w3.org/2000/svg">
<rect width="72" height="68" rx="12" fill="#3563E9"/>
<path d="M33.4168 39.8334C34.1113 40.5279 34.9863 40.8545 36.0418 40.8134C37.0974 40.7723 37.8613 40.3901 38.3335 39.6667L45.3752 29.1251C45.6252 28.7362 45.5907 28.3817 45.2718 28.0617C44.9529 27.7417 44.5985 27.7073 44.2085 27.9584L33.6668 35.0001C32.9446 35.5001 32.5491 36.2573 32.4802 37.2717C32.4113 38.2862 32.7235 39.1401 33.4168 39.8334ZM24.5002 47.3334C23.8891 47.3334 23.3268 47.2012 22.8135 46.9367C22.3002 46.6723 21.8902 46.2767 21.5835 45.7501C20.8613 44.4445 20.3057 43.0906 19.9168 41.6884C19.5279 40.2862 19.3335 38.8345 19.3335 37.3334C19.3335 35.0279 19.7713 32.8612 20.6468 30.8334C21.5224 28.8056 22.7096 27.0417 24.2085 25.5417C25.7074 24.0417 27.4713 22.8545 29.5002 21.9801C31.5291 21.1056 33.6957 20.6679 36.0002 20.6667C38.2779 20.6667 40.4168 21.0973 42.4168 21.9584C44.4168 22.8195 46.1668 23.9934 47.6668 25.4801C49.1668 26.9667 50.3613 28.7029 51.2502 30.6884C52.139 32.674 52.5974 34.8056 52.6252 37.0834C52.6529 38.6112 52.4796 40.1045 52.1052 41.5634C51.7307 43.0223 51.1541 44.4179 50.3752 45.7501C50.0696 46.2779 49.6602 46.674 49.1468 46.9384C48.6335 47.2029 48.0702 47.3345 47.4568 47.3334H24.5002Z" fill="white"/>
</svg>
