<svg width="44" height="38" viewBox="0 0 44 38" fill="none" xmlns="http://www.w3.org/2000/svg">
<path fill-rule="evenodd" clip-rule="evenodd" d="M30.4092 0.800049C31.6238 0.80009 32.8143 1.13828 33.8475 1.77675C34.8806 2.41521 35.7156 3.32872 36.2589 4.41495L39.2808 10.4565C39.8128 10.2385 40.336 10.003 40.8506 9.75008C41.3681 9.49161 41.9671 9.44931 42.5158 9.63249C43.0646 9.81567 43.518 10.2093 43.7765 10.7269C44.035 11.2444 44.0773 11.8434 43.8941 12.3921C43.7109 12.9408 43.3173 13.3943 42.7997 13.6528C42.2757 13.886 41.7487 14.1128 41.219 14.333L43.3143 18.5257C43.7691 19.4348 44.0057 20.4373 44.0054 21.4538V26.9634C44.0054 27.8836 43.8112 28.7935 43.4355 29.6336C43.0598 30.4736 42.5111 31.225 41.8252 31.8385V34.5943C41.8252 35.4617 41.4806 36.2935 40.8673 36.9069C40.254 37.5202 39.4221 37.8648 38.5547 37.8648C37.6874 37.8648 36.8555 37.5202 36.2422 36.9069C35.6289 36.2935 35.2843 35.4617 35.2843 34.5943V33.5042H9.12101V34.5943C9.12101 35.4617 8.77645 36.2935 8.16313 36.9069C7.54981 37.5202 6.71796 37.8648 5.85059 37.8648C4.98323 37.8648 4.15138 37.5202 3.53806 36.9069C2.92474 36.2935 2.58018 35.4617 2.58018 34.5943V31.8385C1.24149 30.6393 0.399902 28.8995 0.399902 26.9634V21.4516C0.40031 20.4366 0.636934 19.4356 1.09105 18.5279L3.16885 14.3679C2.64268 14.147 2.12305 13.9093 1.60996 13.655C1.09504 13.3931 0.703636 12.9394 0.520107 12.3917C0.336578 11.844 0.375625 11.2461 0.628831 10.7269C0.756724 10.4705 0.933879 10.2419 1.15017 10.0541C1.36646 9.86621 1.61765 9.72284 1.88938 9.63213C2.16111 9.54142 2.44806 9.50515 2.73381 9.52539C3.01957 9.54562 3.29853 9.62198 3.55476 9.75008C4.07076 10.0044 4.59403 10.2399 5.12456 10.4565L8.14643 4.41713C8.68942 3.33049 9.52429 2.41653 10.5575 1.77767C11.5907 1.13881 12.7814 0.800293 13.9961 0.800049H30.4092ZM12.3914 20.4225C11.5241 20.4225 10.6922 20.7671 10.0789 21.3804C9.46557 21.9937 9.12101 22.8256 9.12101 23.693C9.12101 24.5603 9.46557 25.3922 10.0789 26.0055C10.6922 26.6188 11.5241 26.9634 12.3914 26.9634C13.2588 26.9634 14.0906 26.6188 14.704 26.0055C15.3173 25.3922 15.6618 24.5603 15.6618 23.693C15.6618 22.8256 15.3173 21.9937 14.704 21.3804C14.0906 20.7671 13.2588 20.4225 12.3914 20.4225ZM32.0139 20.4225C31.1465 20.4225 30.3147 20.7671 29.7014 21.3804C29.0881 21.9937 28.7435 22.8256 28.7435 23.693C28.7435 24.5603 29.0881 25.3922 29.7014 26.0055C30.3147 26.6188 31.1465 26.9634 32.0139 26.9634C32.8813 26.9634 33.7131 26.6188 34.3264 26.0055C34.9398 25.3922 35.2843 24.5603 35.2843 23.693C35.2843 22.8256 34.9398 21.9937 34.3264 21.3804C33.7131 20.7671 32.8813 20.4225 32.0139 20.4225ZM30.4092 5.1606H13.9961C13.6373 5.16055 13.2839 5.24907 12.9675 5.41832C12.6511 5.58757 12.3813 5.83231 12.1821 6.13083L12.0469 6.3663L9.27799 11.8998C12.6531 12.9115 17.2011 13.8817 22.2027 13.8817C26.8728 13.8817 31.144 13.0358 34.434 12.1004L35.1252 11.8998L32.3584 6.3663C32.1979 6.04539 31.9608 5.76905 31.6679 5.56177C31.3751 5.35449 31.0356 5.22268 30.6796 5.17804L30.4114 5.1606H30.4092Z" fill="#3563E9"/>
</svg>
