<svg width="46" height="46" viewBox="0 0 46 46" fill="none" xmlns="http://www.w3.org/2000/svg">
<path fill-rule="evenodd" clip-rule="evenodd" d="M7.13991 44.956C10.4109 45.222 15.6019 45.5 23.0039 45.5C30.4049 45.5 35.5969 45.222 38.8679 44.956C42.1559 44.689 44.6929 42.152 44.9599 38.864C45.2259 35.593 45.5039 30.401 45.5039 23C45.5039 15.599 45.2259 10.407 44.9599 7.136C44.6929 3.848 42.1559 1.311 38.8679 1.044C35.5969 0.778 30.4049 0.5 23.0039 0.5C15.6029 0.5 10.4109 0.778 7.13991 1.044C3.85191 1.311 1.31491 3.848 1.04791 7.136C0.781906 10.407 0.503906 15.599 0.503906 23C0.503906 30.401 0.781906 35.593 1.04791 38.864C1.31491 42.152 3.85191 44.689 7.13991 44.956ZM24.8959 15.718C23.4819 15.669 22.2559 14.796 22.1999 13.383C22.1869 13.0608 22.1869 12.7382 22.1999 12.416C22.2569 11.002 23.4829 10.132 24.8969 10.08C26.9321 10.0079 28.9686 9.98319 31.0049 10.006C32.6003 10.0192 34.1258 10.662 35.2496 11.7945C36.3733 12.927 37.0042 14.4576 37.0049 16.053L36.9959 26.863C36.9929 30.175 34.3089 32.864 30.9979 32.943C26.1259 33.06 20.7259 33.271 17.2939 33.416C17.2725 34.2166 17.2358 35.0168 17.1839 35.816C17.0989 37.065 15.9109 37.61 14.9119 36.856C13.9134 36.0968 12.9412 35.3037 11.9969 34.478C10.2839 32.991 9.30391 31.876 8.75091 31.13C8.50334 30.8078 8.36913 30.4128 8.36913 30.0065C8.36913 29.6002 8.50334 29.2052 8.75091 28.883C9.30391 28.138 10.2849 27.022 11.9969 25.535C12.9411 24.7086 13.9134 23.9149 14.9119 23.155C15.9119 22.403 17.0989 22.948 17.1829 24.196C17.2239 24.805 17.2629 25.556 17.2899 26.478C21.4189 26.552 26.2109 26.729 30.2699 26.884C30.4044 26.8891 30.5385 26.867 30.6643 26.8191C30.79 26.7711 30.9048 26.6983 31.0017 26.6049C31.0986 26.5115 31.1757 26.3995 31.2283 26.2757C31.2809 26.1518 31.308 26.0186 31.3079 25.884V16.751C31.3079 16.198 30.8599 15.751 30.3079 15.752C29.8439 15.753 29.4259 15.756 29.0379 15.758C27.4969 15.765 26.4339 15.771 24.8959 15.718Z" fill="#3563E9"/>
</svg>
