<svg width="39" height="44" viewBox="0 0 39 44" fill="none" xmlns="http://www.w3.org/2000/svg">
<path d="M35.2534 17.1068V23.5468L32.5867 22.9734V15.6534C31.5817 15.2004 30.543 14.8259 29.48 14.5334V22.2934L26.8134 21.7201V14.0001C25.3467 13.7601 23.9067 13.6001 22.7067 13.5201V20.8668L20.04 20.2934V3.78678C20.0053 2.89904 19.6217 2.06086 18.9727 1.45423C18.3236 0.847602 17.4614 0.521515 16.5734 0.546776C15.6853 0.521515 14.8232 0.847602 14.1741 1.45423C13.525 2.06086 13.1415 2.89904 13.1067 3.78678V24.4801L10.44 25.8134V18.8001L7.33338 15.6134C6.62586 14.9067 5.66673 14.5097 4.66671 14.5097C3.66669 14.5097 2.70756 14.9067 2.00004 15.6134C1.28903 16.343 0.891113 17.3214 0.891113 18.3401C0.891113 19.3588 1.28903 20.3372 2.00004 21.0668L10 30.5334C10.2212 32.5172 10.8523 34.4333 11.8534 36.1601C12.5681 37.5675 13.5723 38.808 14.8 39.8001V43.2134H34.0534V38.8268C36.7453 35.6753 38.1708 31.6364 38.0534 27.4934V19.4934C37.2348 18.5723 36.2925 17.7691 35.2534 17.1068Z" fill="#3563E9"/>
</svg>
