<?xml version="1.0" standalone="no"?>
<!DOCTYPE svg PUBLIC "-//W3C//DTD SVG 20010904//EN"
		"http://www.w3.org/TR/2001/REC-SVG-20010904/DTD/svg10.dtd">
<svg version="1.0" xmlns="http://www.w3.org/2000/svg"
     width="1024.000000pt" height="1024.000000pt" viewBox="0 0 1024.000000 1024.000000"
     preserveAspectRatio="xMidYMid meet">
	<metadata>
		Created by potrace 1.16, written by Peter Selinger 2001-2019
	</metadata>
	<defs>
		<!-- Градиент для разделения цветов центральных элементов -->
		<linearGradient id="centerSplit" gradientUnits="userSpaceOnUse" x1="0" y1="0" x2="10240" y2="0">
			<stop offset="50%" stop-color="#003882"/>
			<stop offset="50%" stop-color="#0078D4"/>
		</linearGradient>
	</defs>
	<g transform="translate(0.000000,1024.000000) scale(0.100000,-0.100000)" stroke="none">

		<!-- ================= БЕЛЫЕ ФОНОВЫЕ ПОДЛОЖКИ ================= -->

		<!-- 1. Сплошная белая подложка под маркер. Закрашивает пустоты, делая машину и дугу белыми -->
		<path fill="#FFFFFF" d="M4999 8280 c-437 -41 -818 -265 -1053 -618 -104 -156 -162 -301 -207
-514 -29 -136 -32 -422 -6 -573 89 -512 344 -996 793 -1505 161 -181 581 -590
608 -590 18 0 343 307 483 456 516 548 820 1080 909 1588 62 359 20 713 -119
991 -168 338 -472 593 -843 709 -160 49 -389 72 -565 56z"/>

		<!-- 2. Белая подложка для дороги с расширением. Создает белые разделительные линии между фрагментами дороги -->
		<g fill="#FFFFFF" stroke="#FFFFFF" stroke-width="160" stroke-linejoin="round">
			<path d="M4230 5135 c-41 -12 -181 -56 -310 -96 -415 -127 -1208 -408 -1243 -439 -4 -3 100 -14 230 -24 l238 -17 235 107 c214 97 485 216 838 369 72 32 132 61 132 64 0 3 -10 18 -23 33 l-22 27 -75 -24z"/>
			<path d="M5939 5129 l-20 -29 46 -20 c26 -11 49 -20 51 -20 9 0 807 -344 1058 -457 l100 -44 243 17 c134 10 240 21 235 26 -27 27 -929 333 -1361 463 -345 103 -327 99 -352 64z"/>
			<path d="M4129 4877 c-384 -194 -681 -349 -677 -352 2 -2 68 -11 148 -20 399 -44 1390 -177 1500 -201 18 -4 -21 39 -130 143 -192 184 -341 337 -456 471 -48 56 -91 102 -95 102 -4 0 -134 -65 -290 -143z"/>
			<path d="M5774 4933 c-176 -196 -398 -419 -577 -581 -27 -24 -47 -45 -45 -47 2 -1 104 13 228 31 251 37 1070 141 1380 175 58 6 107 13 109 15 8 7 -982 494 -1007 494 -5 0 -45 -39 -88 -87z"/>
		</g>

		<!-- ================= ЦВЕТНЫЕ ЭЛЕМЕНТЫ ЛОГОТИПА ================= -->

		<!-- Основной синий маркер геолокации (внутри него вырезаны дырки, сквозь которые видно белую подложку) -->
		<path fill="url(#centerSplit)" d="M4999 8280 c-437 -41 -818 -265 -1053 -618 -104 -156 -162 -301 -207
-514 -29 -136 -32 -422 -6 -573 89 -512 344 -996 793 -1505 161 -181 581 -590
608 -590 18 0 343 307 483 456 516 548 820 1080 909 1588 62 359 20 713 -119
991 -168 338 -472 593 -843 709 -160 49 -389 72 -565 56z m354 -286 c244 -46
393 -129 583 -326 139 -144 145 -164 65 -227 l-39 -31 -69 71 c-66 68 -275
219 -373 269 -226 115 -543 116 -765 4 -123 -62 -287 -179 -369 -264 -43 -44
-80 -80 -82 -80 -16 0 -94 86 -94 104 0 48 195 241 345 341 129 86 261 134
425 155 84 11 273 3 373 -16z m17 -675 c158 -14 345 -46 381 -64 38 -20 85
-93 175 -269 38 -74 72 -136 75 -136 4 0 9 17 13 38 10 64 32 76 127 68 45 -4
96 -13 115 -21 33 -13 34 -16 34 -68 0 -29 -6 -60 -12 -69 -13 -17 -90 -42
-165 -53 -24 -4 -43 -10 -43 -14 0 -4 24 -31 54 -60 29 -29 64 -74 77 -99 23
-44 24 -57 23 -212 -1 -136 -5 -179 -22 -244 -37 -134 -57 -152 -199 -172
-103 -14 -333 -30 -333 -23 0 3 9 22 20 44 23 46 26 117 6 134 -11 9 -38 8
-118 -8 -284 -54 -668 -50 -931 9 -67 15 -87 2 -87 -53 0 -23 9 -62 20 -86
l20 -44 -97 7 c-158 11 -306 28 -333 38 -65 25 -97 95 -120 266 -16 113 -9
282 14 335 8 21 44 67 78 103 70 74 69 78 -23 88 -79 8 -127 29 -139 61 -16
42 -12 90 9 109 20 18 109 36 182 36 54 0 69 -13 84 -74 l11 -41 73 140 c103
195 144 253 195 275 115 51 573 83 836 59z"/>

		<!-- Синие детали на самой машине -->
		<!-- Лобовое стекло -->
		<path fill="url(#centerSplit)" d="M4850 7224 c-92 -9 -219 -27 -253 -35 -31 -8 -45 -21 -74 -67 -44
-69 -157 -302 -149 -309 2 -3 62 0 133 7 298 27 1069 23 1331 -7 41 -4 52 -3
52 8 0 24 -94 220 -139 291 -50 79 -52 80 -247 103 -116 14 -541 19 -654 9z
m724 -69 c106 -17 123 -28 83 -59 -16 -11 -78 -60 -138 -108 l-110 -88 -174 0
c-96 0 -175 1 -175 3 0 5 167 146 252 213 88 69 74 67 262 39z"/>
		<!-- Левое зеркало/фара -->
		<path fill="#003882" d="M4201 6583 c-30 -25 -38 -85 -16 -119 25 -38 66 -51 225 -69 153 -17
194 -13 207 22 8 21 -38 60 -129 108 -137 73 -243 94 -287 58z"/>
		<!-- Правое зеркало/фара -->
		<path fill="#0078D4" d="M5903 6580 c-72 -25 -182 -85 -224 -120 -28 -23 -32 -32 -23 -46 18
-30 59 -34 198 -19 164 17 204 30 229 73 22 37 18 65 -14 105 -17 23 -28 27
-67 26 -26 0 -70 -9 -99 -19z"/>
		<!-- Решетка радиатора -->
		<path fill="url(#centerSplit)" d="M4733 6375 c9 -57 49 -127 82 -146 97 -56 551 -54 644 2 32 19 75 98
83 150 2 20 -1 24 -22 22 -14 0 -105 -7 -202 -14 -142 -10 -213 -10 -360 -1
-101 7 -194 16 -207 19 -23 6 -24 4 -18 -32z"/>
		<!-- Колесо -->
		<path fill="#003882" d="M4183 6143 c4 -20 11 -41 17 -47 6 -6 48 -11 97 -11 70 0 88 3 96 17
6 9 8 20 5 24 -7 6 -193 54 -212 54 -5 0 -6 -16 -3 -37z"/>

		<!-- Синие элементы дороги (ложатся ПОВЕРХ белой подложки, оставляя белые линии в зазорах) -->
		<path fill="#003882" d="M4230 5135 c-41 -12 -181 -56 -310 -96 -415 -127 -1208 -408 -1243
-439 -4 -3 100 -14 230 -24 l238 -17 235 107 c214 97 485 216 838 369 72 32
132 61 132 64 0 3 -10 18 -23 33 l-22 27 -75 -24z"/>
		<path fill="#0078D4" d="M5939 5129 l-20 -29 46 -20 c26 -11 49 -20 51 -20 9 0 807 -344 1058
-457 l100 -44 243 17 c134 10 240 21 235 26 -27 27 -929 333 -1361 463 -345
103 -327 99 -352 64z"/>
		<path fill="#003882" d="M4129 4877 c-384 -194 -681 -349 -677 -352 2 -2 68 -11 148 -20 399
-44 1390 -177 1500 -201 18 -4 -21 39 -130 143 -192 184 -341 337 -456 471
-48 56 -91 102 -95 102 -4 0 -134 -65 -290 -143z"/>
		<path fill="#0078D4" d="M5774 4933 c-176 -196 -398 -419 -577 -581 -27 -24 -47 -45 -45 -47
2 -1 104 13 228 31 251 37 1070 141 1380 175 58 6 107 13 109 15 8 7 -982 494
-1007 494 -5 0 -45 -39 -88 -87z"/>

		<!-- Волновые сигналы слева -->
		<path fill="#003882" d="M3094 8151 c-43 -26 -163 -167 -236 -275 -107 -161 -169 -303 -215
-496 -37 -156 -43 -400 -14 -568 38 -222 131 -447 257 -623 85 -118 134 -136
201 -75 55 50 51 80 -25 194 -219 328 -283 697 -187 1082 53 212 167 424 311
580 29 31 55 67 59 81 9 36 -10 76 -47 99 -41 25 -65 25 -104 1z"/>
		<path fill="#003882" d="M3312 7863 c-198 -213 -307 -476 -319 -773 -8 -192 29 -362 118 -545
58 -120 114 -195 153 -208 56 -18 129 40 129 102 0 15 -14 49 -32 74 -49 72
-108 203 -133 297 -20 74 -23 108 -22 260 0 161 2 182 27 263 45 145 117 276
219 400 58 70 62 104 19 148 -23 23 -38 29 -72 29 -38 0 -47 -5 -87 -47z"/>
		<path fill="#003882" d="M3565 7618 c-146 -163 -227 -417 -204 -644 16 -155 115 -393 170
-407 27 -7 89 17 89 35 0 7 -9 45 -20 83 -51 177 -60 389 -24 545 18 77 89
230 133 284 40 50 42 97 5 131 -19 17 -38 25 -65 25 -32 0 -43 -7 -84 -52z"/>

		<!-- Волновые сигналы справа -->
		<path fill="#0078D4" d="M7055 8139 c-58 -51 -51 -82 42 -192 168 -201 262 -393 314 -640 31
-144 31 -362 0 -504 -39 -188 -115 -366 -220 -523 -28 -41 -51 -86 -51 -99 0
-14 16 -39 39 -62 31 -32 46 -39 76 -39 31 0 45 7 76 39 47 51 141 202 190
307 197 426 178 934 -50 1347 -66 119 -161 245 -249 330 -83 79 -110 85 -167
36z"/>
		<path fill="#0078D4" d="M6798 7883 c-52 -56 -48 -80 33 -173 143 -167 224 -371 236 -596 11
-206 -34 -389 -137 -560 -33 -54 -60 -107 -60 -117 0 -56 74 -114 131 -102 80
18 224 316 259 537 20 125 8 361 -24 482 -46 170 -150 361 -271 494 -52 57
-60 62 -99 62 -33 0 -48 -6 -68 -27z"/>
		<path fill="#0078D4" d="M6549 7641 c-33 -34 -37 -64 -11 -102 9 -14 34 -51 54 -81 41 -62 78
-149 105 -248 35 -130 14 -411 -42 -570 -12 -34 -12 -40 4 -54 9 -9 31 -18 47
-22 26 -5 35 -1 59 28 45 53 103 185 125 283 22 100 26 244 9 327 -32 159
-114 327 -207 421 -57 58 -97 63 -143 18z"/>

		<!-- Буквы Car -->
		<path fill="#003882" d="M2341 3999 c-77 -12 -188 -49 -250 -85 -112 -64 -208 -205 -253 -369
-28 -107 -31 -313 -6 -396 64 -204 264 -300 566 -270 60 6 128 17 153 24 l44
13 19 97 c12 61 16 101 10 107 -6 6 -34 5 -74 -1 -36 -6 -108 -12 -160 -12
-82 -1 -103 3 -151 25 -31 14 -65 38 -76 54 -76 107 -45 349 61 478 76 93 207
128 391 106 57 -6 108 -9 114 -6 5 3 19 47 31 98 18 75 19 93 8 103 -34 31
-304 53 -427 34z"/>
		<path fill="#003882" d="M2987 3675 c-160 -27 -150 -20 -166 -109 -18 -102 -16 -103 97 -88
114 15 254 15 287 0 30 -13 40 -44 31 -93 l-7 -35 -118 0 c-64 0 -144 -5 -177
-11 -64 -12 -146 -48 -181 -81 -64 -60 -86 -211 -40 -279 50 -75 127 -103 264
-97 79 3 100 8 154 36 34 18 63 31 64 30 0 -2 6 -15 13 -30 12 -28 12 -28 112
-28 55 0 100 3 100 6 0 15 26 170 56 338 19 104 34 210 34 235 -1 94 -54 162
-155 196 -69 23 -255 28 -368 10z m213 -499 c0 -23 -9 -45 -27 -67 -71 -83
-214 -78 -213 9 1 61 54 92 163 92 l77 0 0 -34z"/>
		<path fill="#003882" d="M4037 3670 c-16 -5 -53 -27 -83 -50 -51 -38 -54 -39 -54 -18 0 13 -3
33 -6 46 -6 21 -10 22 -125 22 -114 0 -119 -1 -119 -21 0 -25 -39 -264 -86
-529 -18 -107 -34 -202 -34 -212 0 -16 12 -18 135 -18 131 0 135 1 140 23 2
12 21 119 41 237 24 143 42 221 53 234 30 34 75 49 166 55 l90 6 18 90 c10 50
16 101 15 115 -3 23 -7 25 -63 27 -33 1 -73 -2 -88 -7z"/>

		<!-- Буквы Share -->
		<path fill="#0078D4" d="M4585 3984 c-198 -44 -316 -179 -319 -365 -1 -68 2 -81 29 -125 38
-60 96 -97 254 -159 165 -65 198 -105 151 -182 -36 -60 -181 -80 -355 -48 -44
9 -99 18 -121 21 l-41 6 -18 -94 c-10 -53 -16 -102 -12 -110 10 -27 173 -51
342 -52 127 0 163 4 232 23 190 53 293 180 293 359 -1 154 -54 209 -286 291
-156 55 -189 86 -161 153 22 52 70 71 192 76 55 3 142 -1 193 -8 60 -8 97 -9
103 -3 12 12 45 180 37 188 -37 38 -387 57 -513 29z"/>
		<path fill="#0078D4" d="M5186 3603 c-96 -527 -124 -697 -119 -705 5 -9 208 -10 241 -2 12 4
24 16 26 28 3 11 22 120 43 241 32 186 42 224 63 249 50 60 160 77 205 31 33
-32 32 -55 -14 -320 -22 -121 -37 -223 -35 -227 6 -9 188 -11 232 -2 28 6 32
11 42 58 22 109 80 472 80 501 0 84 -49 169 -118 204 -69 36 -228 31 -320 -9
-25 -11 -46 -19 -48 -17 -2 2 30 202 51 310 l7 37 -134 0 -134 0 -68 -377z"/>
		<path fill="#0078D4" d="M6360 3683 c-88 -8 -219 -36 -223 -46 -2 -7 -10 -42 -17 -80 -18 -89
-13 -94 80 -78 122 20 243 25 283 12 47 -16 61 -41 52 -97 l-6 -44 -107 0
c-178 0 -305 -32 -370 -93 -85 -79 -92 -242 -15 -314 77 -73 264 -85 387 -24
74 36 76 37 76 12 0 -34 23 -42 121 -39 l94 3 11 80 c6 44 25 160 42 258 39
218 40 278 9 338 -48 91 -205 133 -417 112z m137 -514 c-6 -49 -37 -85 -95
-111 -104 -47 -193 27 -131 106 30 38 51 45 148 45 l84 1 -6 -41z"/>
		<path fill="#0078D4" d="M7875 3679 c-232 -22 -359 -145 -401 -389 -35 -207 20 -335 167 -386
79 -28 383 -27 484 2 l70 19 20 77 c13 54 16 81 9 88 -7 7 -33 6 -85 -5 -92
-20 -240 -30 -304 -21 -63 10 -105 50 -105 99 l0 34 183 5 c152 4 192 9 242
27 107 38 163 104 173 202 18 188 -146 277 -453 248z m172 -185 c53 -34 32
-107 -38 -131 -19 -7 -83 -12 -143 -12 -95 -1 -107 1 -102 15 3 9 6 22 6 29 0
18 56 82 84 97 54 30 150 31 193 2z"/>
		<path fill="#0078D4" d="M7324 3656 c-28 -13 -66 -37 -86 -55 l-35 -31 -7 50 -7 50 -113 0
-114 0 -16 -87 c-51 -283 -115 -677 -110 -684 3 -5 63 -9 134 -9 l128 0 6 28
c3 15 10 59 16 97 29 192 63 351 78 369 30 34 103 59 180 62 41 1 76 5 79 8 9
8 32 145 32 189 l1 37 -57 0 c-40 0 -74 -8 -109 -24z"/>

	</g>
</svg>