<svg width="16" height="20" viewBox="0 0 16 20" fill="none" xmlns="http://www.w3.org/2000/svg">
<path d="M1.8 0.9C1.8 0.661305 1.70518 0.432387 1.5364 0.263604C1.36761 0.0948211 1.13869 0 0.9 0C0.661305 0 0.432387 0.0948211 0.263604 0.263604C0.0948211 0.432387 0 0.661305 0 0.9V18.3C0 18.5387 0.0948211 18.7676 0.263604 18.9364C0.432387 19.1052 0.661305 19.2 0.9 19.2C1.13869 19.2 1.36761 19.1052 1.5364 18.9364C1.70518 18.7676 1.8 18.5387 1.8 18.3V0.9ZM15.6 0.9C15.6 0.661305 15.5052 0.432387 15.3364 0.263604C15.1676 0.0948211 14.9387 0 14.7 0C14.4613 0 14.2324 0.0948211 14.0636 0.263604C13.8948 0.432387 13.8 0.661305 13.8 0.9V18.3C13.8 18.5387 13.8948 18.7676 14.0636 18.9364C14.2324 19.1052 14.4613 19.2 14.7 19.2C14.9387 19.2 15.1676 19.1052 15.3364 18.9364C15.5052 18.7676 15.6 18.5387 15.6 18.3V0.9ZM8.7 0.9C8.7 0.661305 8.60518 0.432387 8.4364 0.263604C8.26761 0.0948211 8.0387 0 7.8 0C7.56131 0 7.33239 0.0948211 7.1636 0.263604C6.99482 0.432387 6.9 0.661305 6.9 0.9V3.9C6.9 4.13869 6.99482 4.36761 7.1636 4.5364C7.33239 4.70518 7.56131 4.8 7.8 4.8C8.0387 4.8 8.26761 4.70518 8.4364 4.5364C8.60518 4.36761 8.7 4.13869 8.7 3.9V0.9ZM6.9 11.1C6.9 11.3387 6.99482 11.5676 7.1636 11.7364C7.33239 11.9052 7.56131 12 7.8 12C8.0387 12 8.26761 11.9052 8.4364 11.7364C8.60518 11.5676 8.7 11.3387 8.7 11.1V8.1C8.7 7.86131 8.60518 7.63239 8.4364 7.4636C8.26761 7.29482 8.0387 7.2 7.8 7.2C7.56131 7.2 7.33239 7.29482 7.1636 7.4636C6.99482 7.63239 6.9 7.86131 6.9 8.1V11.1ZM6.9 15.3C6.9 15.0613 6.99482 14.8324 7.1636 14.6636C7.33239 14.4948 7.56131 14.4 7.8 14.4C8.0387 14.4 8.26761 14.4948 8.4364 14.6636C8.60518 14.8324 8.7 15.0613 8.7 15.3V18.3C8.7 18.5387 8.60518 18.7676 8.4364 18.9364C8.26761 19.1052 8.0387 19.2 7.8 19.2C7.56131 19.2 7.33239 19.1052 7.1636 18.9364C6.99482 18.7676 6.9 18.5387 6.9 18.3V15.3Z" fill="white"/>
</svg>
