<svg width="15" height="13" viewBox="0 0 15 13" fill="none" xmlns="http://www.w3.org/2000/svg">
<path d="M0 1.25C0 0.559644 0.479695 0 1.07143 0H13.9286C14.5203 0 15 0.559644 15 1.25C15 1.94036 14.5203 2.5 13.9286 2.5H1.07143C0.479695 2.5 0 1.94036 0 1.25Z" fill="black"/>
<path d="M0 6.25C0 5.55964 0.479695 5 1.07143 5H13.9286C14.5203 5 15 5.55964 15 6.25C15 6.94036 14.5203 7.5 13.9286 7.5H1.07143C0.479695 7.5 0 6.94036 0 6.25Z" fill="black"/>
<path d="M0 11.25C0 10.5596 0.479695 10 1.07143 10H13.9286C14.5203 10 15 10.5596 15 11.25C15 11.9404 14.5203 12.5 13.9286 12.5H1.07143C0.479695 12.5 0 11.9404 0 11.25Z" fill="black"/>
</svg>
